<?xml version="1.0" standalone="no"?>
<!DOCTYPE svg PUBLIC "-//W3C//DTD SVG 20010904//EN"
 "http://www.w3.org/TR/2001/REC-SVG-20010904/DTD/svg10.dtd">
<svg version="1.0" xmlns="http://www.w3.org/2000/svg"
 width="4725.000000pt" height="1092.000000pt" viewBox="0 0 4725.000000 1092.000000"
 preserveAspectRatio="xMidYMid meet">

<g transform="translate(0.000000,1092.000000) scale(0.100000,-0.100000)"
fill="#000000" stroke="none">
<path d="M7005 10913 c-181 -15 -413 -49 -431 -64 -6 -5 -14 -6 -17 -3 -8 8
-237 -49 -237 -58 0 -5 8 -8 18 -9 11 0 12 -2 4 -6 -7 -3 -20 1 -29 9 -10 8
-14 8 -10 1 4 -6 3 -14 -3 -18 -5 -3 -10 -1 -10 4 0 14 -27 14 -35 1 -3 -6 1
-7 9 -4 14 5 16 -6 16 -80 0 -79 2 -86 20 -86 17 0 20 -7 20 -40 0 -33 3 -40
20 -40 17 0 20 -7 20 -40 0 -33 3 -40 20 -40 17 0 20 -7 20 -40 0 -33 3 -40
20 -40 18 0 20 -7 20 -80 0 -73 2 -80 20 -80 17 0 20 -7 20 -40 0 -33 3 -40
20 -40 17 0 20 -7 20 -40 0 -33 3 -40 20 -40 17 0 20 -7 20 -40 0 -33 3 -40
20 -40 18 0 20 -7 20 -80 l0 -80 40 0 40 0 0 -80 c0 -73 2 -80 20 -80 17 0 20
-7 20 -40 0 -33 3 -40 20 -40 17 0 20 -7 20 -40 0 -33 3 -40 20 -40 17 0 20
-7 20 -40 0 -33 3 -40 20 -40 18 0 20 -7 20 -80 l0 -80 40 0 40 0 0 -80 c0
-73 2 -80 20 -80 17 0 20 -7 20 -40 0 -33 3 -40 20 -40 17 0 20 -7 20 -40 0
-33 3 -40 20 -40 17 0 20 -7 20 -40 0 -33 3 -40 20 -40 18 0 20 -7 20 -80 l0
-79 63 -4 c38 -2 14 -4 -63 -6 -104 -3 -116 -5 -75 -11 28 -5 290 -9 583 -9
l532 -1 3 -1027 c1 -566 1 -1099 1 -1185 -1 -87 2 -158 7 -158 5 0 10 37 11
83 1 82 2 76 14 -80 5 -73 8 -83 25 -83 17 0 19 -8 19 -80 l0 -80 40 0 40 0 0
-80 c0 -73 2 -80 20 -80 17 0 20 -7 20 -40 0 -33 3 -40 20 -40 17 0 20 -7 20
-40 0 -33 3 -40 20 -40 17 0 20 -7 20 -40 0 -33 3 -40 20 -40 18 0 20 -7 20
-80 l0 -80 40 0 40 0 0 -80 c0 -73 2 -80 20 -80 17 0 20 -7 20 -40 0 -33 3
-40 20 -40 17 0 20 -7 20 -40 0 -33 3 -40 20 -40 17 0 20 -7 20 -40 0 -33 3
-40 20 -40 17 0 20 -7 20 -39 0 -22 -5 -41 -12 -43 -7 -3 8 -4 32 -3 50 2 143
42 134 57 -4 6 -1 8 7 6 18 -7 51 10 44 22 -3 5 0 12 6 16 8 4 9 3 5 -4 -12
-20 10 -13 29 8 10 11 23 20 29 20 7 0 27 13 46 30 19 16 38 29 43 30 16 0
146 102 144 112 -1 6 6 12 16 13 47 8 361 315 496 485 387 487 621 1059 681
1669 15 152 12 490 -5 657 -54 513 -223 988 -501 1409 -80 122 -74 114 -195
263 -94 117 -298 323 -394 399 -171 135 -259 198 -378 270 -433 261 -903 411
-1421 453 -118 9 -385 11 -481 3z m-585 -139 c0 -2 -7 -4 -15 -4 -8 0 -15 4
-15 10 0 5 7 7 15 4 8 -4 15 -8 15 -10z m2560 -5618 c0 -2 -8 -10 -17 -17 -16
-13 -17 -12 -4 4 13 16 21 21 21 13z m-170 -91 c-10 -12 -10 -15 1 -15 8 -1
-4 -10 -25 -20 -46 -23 -85 -27 -46 -5 14 8 33 14 43 15 11 0 15 5 11 11 -3 6
0 15 7 20 20 13 23 11 9 -6z"/>
<path d="M6231 10754 c0 -11 3 -14 6 -6 3 7 2 16 -1 19 -3 4 -6 -2 -5 -13z"/>
<path d="M6173 10749 c-18 -5 -33 -12 -33 -14 0 -7 64 7 75 16 11 11 1 10 -42
-2z"/>
<path d="M6160 10720 c-9 -6 -10 -10 -3 -10 6 0 19 -3 29 -7 13 -5 15 -3 9 7
-6 10 -2 11 19 6 18 -4 25 -3 21 4 -8 13 -55 13 -75 0z"/>
<path d="M6103 10713 c4 -3 5 -9 1 -14 -7 -12 7 -11 26 1 9 6 10 10 3 10 -6 0
-17 2 -25 3 -7 2 -10 2 -5 0z"/>
<path d="M6157 10689 c7 -7 15 -10 18 -7 3 3 -2 9 -12 12 -14 6 -15 5 -6 -5z"/>
<path d="M6218 10683 c7 -3 16 -2 19 1 4 3 -2 6 -13 5 -11 0 -14 -3 -6 -6z"/>
<path d="M5904 10633 c4 -4 16 -8 28 -10 28 -4 18 6 -12 12 -12 2 -20 1 -16
-2z"/>
<path d="M22085 7833 c-1398 -126 -2455 -1125 -2627 -2483 -20 -158 -17 -593
6 -745 49 -335 124 -581 266 -870 142 -290 284 -489 510 -716 160 -160 260
-243 425 -353 491 -327 1072 -496 1703 -496 1137 1 2132 584 2619 1535 151
296 243 590 290 925 21 156 24 574 5 730 -117 945 -660 1731 -1487 2152 -345
175 -661 268 -1065 314 -114 13 -531 17 -645 7z m542 -1378 c477 -93 860 -434
1026 -912 198 -567 74 -1202 -314 -1607 -251 -263 -578 -399 -959 -399 -356 0
-657 116 -909 350 -134 124 -234 262 -320 443 -269 565 -167 1298 241 1735
218 233 468 358 823 409 63 9 333 -3 412 -19z"/>
<path d="M34015 7824 c-967 -119 -1752 -644 -2193 -1464 -270 -503 -380 -1126
-307 -1735 112 -922 644 -1704 1445 -2124 397 -208 812 -314 1280 -328 677
-19 1280 138 1750 457 243 165 508 422 714 693 32 42 57 79 55 81 -20 19
-1140 806 -1147 806 -4 0 -18 -14 -31 -31 -41 -55 -224 -239 -301 -303 -191
-159 -373 -248 -603 -298 -140 -30 -430 -32 -557 -4 -335 73 -611 263 -804
553 -295 445 -336 1084 -101 1580 190 401 530 666 949 739 137 24 406 14 542
-20 308 -77 577 -258 826 -555 21 -24 43 -41 50 -38 7 2 193 143 413 313 421
324 586 451 673 516 28 22 52 43 52 47 0 3 -34 49 -75 101 -451 569 -1012 889
-1755 1002 -182 27 -694 35 -875 12z"/>
<path d="M13060 5010 l0 -2730 765 0 765 0 0 1035 0 1035 1005 0 1005 0 0
-1035 0 -1035 760 0 760 0 0 2730 0 2730 -760 0 -760 0 -2 -1022 -3 -1023
-1002 -3 -1003 -2 0 1025 0 1025 -765 0 -765 0 0 -2730z"/>
<path d="M26690 5010 l0 -2730 2020 0 2020 0 0 660 0 660 -1257 2 -1258 3 -3
2068 -2 2067 -760 0 -760 0 0 -2730z"/>
<path d="M38130 5010 l0 -2730 765 0 765 0 0 2730 0 2730 -765 0 -765 0 0
-2730z"/>
<path d="M41230 5010 l0 -2730 745 0 745 0 0 1582 c0 1368 2 1580 14 1568 13
-13 594 -842 1246 -1778 176 -251 229 -322 244 -320 13 2 257 343 750 1050
402 576 737 1053 744 1060 9 10 12 -305 12 -1575 l0 -1587 755 0 755 0 0 2730
0 2730 -802 0 -803 0 -694 -1051 c-382 -577 -697 -1052 -700 -1053 -3 -2 -319
470 -701 1050 l-695 1053 -807 1 -808 0 0 -2730z"/>
<path d="M8600 4987 c0 -5 -10 -5 -22 -1 -23 6 -23 6 1 -15 29 -25 32 -26 25
-6 -4 10 0 15 14 15 12 0 23 3 25 8 3 4 -6 7 -19 7 -13 0 -24 -4 -24 -8z"/>
<path d="M8690 4974 c0 -8 5 -12 10 -9 6 3 10 10 10 16 0 5 -4 9 -10 9 -5 0
-10 -7 -10 -16z"/>
<path d="M8628 4963 c8 -3 5 -11 -10 -24 l-23 -20 25 13 c14 7 29 11 33 10 5
-1 5 3 1 9 -5 9 -2 10 10 6 9 -4 15 -3 12 2 -3 5 -18 8 -33 8 -16 0 -22 -2
-15 -4z"/>
<path d="M8565 4910 c-3 -6 1 -7 9 -4 18 7 21 14 7 14 -6 0 -13 -4 -16 -10z"/>
</g>
</svg>
